<?xml version="1.0" encoding="utf-8"?>
<svg version="1.1" xmlns="http://www.w3.org/2000/svg" xmlns:xlink="http://www.w3.org/1999/xlink" x="0px" y="0px"
	 viewBox="0 0 24 24" xml:space="preserve">
<style type="text/css">
	.st0{fill:#2d3848;}
</style>
<g>
	<path class="st0" d="M7.5,7.4L7.5,7.4c0.6,0,1-0.4,1.1-0.9c0-0.6-0.4-1-0.9-1.1c0,0,0,0,0,0H7.3c2.8-2.1,6.6-2.1,9.3,0
		c3.6,2.6,4.5,7.6,1.9,11.3c-1.2,1.7-3.1,2.9-5.2,3.3c-4.4,0.7-8.4-2.3-9.1-6.7c-0.2-0.9-0.2-1.9,0-2.8c0.1-0.6-0.3-1.1-0.8-1.2
		c-0.6-0.1-1.1,0.3-1.2,0.8c-0.2,1.2-0.2,2.3,0,3.5c0.7,4.9,4.9,8.4,9.8,8.5c0.5,0,1.1,0,1.6-0.1c5.4-0.9,9.1-6.1,8.2-11.5
		c-0.4-2.6-1.9-5-4-6.5c-2.1-1.6-4.8-2.2-7.4-1.8C9.1,2.3,7.8,2.8,6.7,3.5V3.3c0.1-0.6-0.2-1.1-0.8-1.2S4.8,2.3,4.7,2.9l0,0L3.9,6.7
		c0,0.2,0.1,0.4,0.3,0.4L7.5,7.4z"/>
</g>
</svg>
